<svg width="20" height="20" fill="none" xmlns="http://www.w3.org/2000/svg"><path d="M18.5 10a8.5 8.5 0 01-8.5 8.5v1a9.5 9.5 0 009.5-9.5h-1zM10 18.5A8.5 8.5 0 011.5 10h-1a9.5 9.5 0 009.5 9.5v-1zM1.5 10A8.5 8.5 0 0110 1.5v-1A9.5 9.5 0 00.5 10h1zM10 1.5a8.5 8.5 0 018.5 8.5h1A9.5 9.5 0 0010 .5v1z" fill="#fff"/><path fill-rule="evenodd" clip-rule="evenodd" d="M8.727 5.568c-.085-.412-.251-.451-.402-.486A9.51 9.51 0 007.92 5a.763.763 0 00-.617.178c-.239.19-.892.638-1.107 1.762-.214 1.122.339 2.353.414 2.526.078.17.982 2.81 2.958 4.135 1.643 1.101 2.036 1.02 2.43 1.057.397.035 1.36-.313 1.637-.813.278-.499.365-.955.331-1.061-.034-.106-.164-.19-.355-.345-.189-.155-1.124-.904-1.305-1.018-.179-.113-.313-.177-.497.023-.185.2-.69.638-.842.767-.153.128-.279.124-.47-.03-.189-.155-.824-.525-1.484-1.458-.514-.725-.797-1.552-.877-1.805-.08-.251.054-.354.182-.449.115-.083.263-.226.395-.34.13-.113.183-.2.284-.339.098-.138.089-.279.059-.403-.03-.125-.227-1.331-.329-1.818z" fill="#fff"/></svg>